<svg
  width="512"
  height="512"
  viewBox="0 0 512 512"
  fill="none"
  xmlns="http://www.w3.org/2000/svg"
>
  <rect width="512" height="512" rx="112" fill="#111111" />
  <path
    d="M166 166H270C316 166 348 194 348 236C348 274 320 302 278 306L348 392H292L227 311H214V392H166V166ZM214 206V274H264C290 274 302 262 302 240C302 218 288 206 262 206H214Z"
    fill="#D4AF37"
  />
  <path
    d="M205 126H356V166H253C234 166 224 176 224 194C224 210 235 220 257 226L290 235C337 247 364 273 364 317C364 366 329 400 270 400H156V360H267C300 360 316 346 316 322C316 304 305 293 276 286L244 278C196 266 176 238 176 202C176 155 210 126 272 126H205Z"
    fill="#D4AF37"
  />
</svg>
